<svg width="66" height="47" viewBox="0 0 66 47" fill="none" xmlns="http://www.w3.org/2000/svg">
<path d="M26.2344 26.4291L32.7733 22.4727L39.6765 26.4291" stroke="#116A7B" stroke-width="2.42526" stroke-miterlimit="10"/>
<mask id="path-2-inside-1_3026_402" fill="white">
<path d="M53.9872 39.7129H52.9277V46.3594H53.9872V39.7129Z"/>
</mask>
<path d="M53.9872 39.7129H52.9277V46.3594H53.9872V39.7129Z" fill="url(#paint0_linear_3026_402)"/>
<path d="M52.9277 39.7129V37.2876H50.5025V39.7129H52.9277ZM53.9872 39.7129H56.4125V37.2876H53.9872V39.7129ZM53.9872 46.3594V48.7847H56.4125V46.3594H53.9872ZM52.9277 46.3594H50.5025V48.7847H52.9277V46.3594ZM52.9277 42.1381H53.9872V37.2876H52.9277V42.1381ZM51.562 39.7129V46.3594H56.4125V39.7129H51.562ZM53.9872 43.9342H52.9277V48.7847H53.9872V43.9342ZM55.353 46.3594V39.7129H50.5025V46.3594H55.353Z" fill="#116A7B" mask="url(#path-2-inside-1_3026_402)"/>
<mask id="path-4-inside-2_3026_402" fill="white">
<path d="M51.578 46.3511H50.5102L50.502 39.3652L51.578 39.5639V46.3511Z"/>
</mask>
<path d="M51.578 46.3511H50.5102L50.502 39.3652L51.578 39.5639V46.3511Z" fill="url(#paint1_linear_3026_402)"/>
<path d="M51.578 46.3511V48.7764H54.0032V46.3511H51.578ZM50.5102 46.3511L48.085 46.354L48.0879 48.7764H50.5102V46.3511ZM50.502 39.3652L50.9422 36.9803L48.0732 36.4506L48.0767 39.3681L50.502 39.3652ZM51.578 39.5639H54.0032V37.5454L52.0183 37.1789L51.578 39.5639ZM51.578 43.9259H50.5102V48.7764H51.578V43.9259ZM52.9355 46.3483L52.9272 39.3624L48.0767 39.3681L48.085 46.354L52.9355 46.3483ZM50.0617 41.7502L51.1377 41.9488L52.0183 37.1789L50.9422 36.9803L50.0617 41.7502ZM49.1527 39.5639V46.3511H54.0032V39.5639H49.1527Z" fill="#116A7B" mask="url(#path-4-inside-2_3026_402)"/>
<mask id="path-6-inside-3_3026_402" fill="white">
<path d="M51.5712 0.015625H50.5117V6.61252H51.5712V0.015625Z"/>
</mask>
<path d="M51.5712 0.015625H50.5117V6.61252H51.5712V0.015625Z" fill="url(#paint2_linear_3026_402)"/>
<path d="M50.5117 0.015625V-2.40963H48.0865V0.015625H50.5117ZM51.5712 0.015625H53.9964V-2.40963H51.5712V0.015625ZM51.5712 6.61252V9.03777H53.9964V6.61252H51.5712ZM50.5117 6.61252H48.0865V9.03777H50.5117V6.61252ZM50.5117 2.44088H51.5712V-2.40963H50.5117V2.44088ZM49.1459 0.015625V6.61252H53.9964V0.015625H49.1459ZM51.5712 4.18726H50.5117V9.03777H51.5712V4.18726ZM52.937 6.61252V0.015625H48.0865V6.61252H52.937Z" fill="#116A7B" mask="url(#path-6-inside-3_3026_402)"/>
<mask id="path-8-inside-4_3026_402" fill="white">
<path d="M53.9696 0H52.9102V6.59689H53.9696V0Z"/>
</mask>
<path d="M53.9696 0H52.9102V6.59689H53.9696V0Z" fill="url(#paint3_linear_3026_402)"/>
<path d="M52.9102 0V-2.42526H50.4849V0H52.9102ZM53.9696 0H56.3949V-2.42526H53.9696V0ZM53.9696 6.59689V9.02215H56.3949V6.59689H53.9696ZM52.9102 6.59689H50.4849V9.02215H52.9102V6.59689ZM52.9102 2.42526H53.9696V-2.42526H52.9102V2.42526ZM51.5444 0V6.59689H56.3949V0H51.5444ZM53.9696 4.17164H52.9102V9.02215H53.9696V4.17164ZM55.3354 6.59689V0H50.4849V6.59689H55.3354Z" fill="#116A7B" mask="url(#path-8-inside-4_3026_402)"/>
<mask id="path-10-inside-5_3026_402" fill="white">
<path d="M53.7555 21.5699C57.1988 21.5699 63.9032 19.9807 63.9032 14.0294C63.9032 8.07814 59.6736 6.37305 54.1859 6.37305H46.9434V6.81174H51.9097C55.6758 6.81174 58.9287 8.46717 58.9287 14.0294C58.9287 18.4329 57.5547 21.3713 53.7968 21.5699"/>
</mask>
<path d="M53.7555 21.5699C57.1988 21.5699 63.9032 19.9807 63.9032 14.0294C63.9032 8.07814 59.6736 6.37305 54.1859 6.37305H46.9434V6.81174H51.9097C55.6758 6.81174 58.9287 8.46717 58.9287 14.0294C58.9287 18.4329 57.5547 21.3713 53.7968 21.5699" fill="#116A7B"/>
<path d="M46.9434 6.37305V3.94779H44.5181V6.37305H46.9434ZM46.9434 6.81174H44.5181V9.23699H46.9434V6.81174ZM53.7555 23.9952C55.7591 23.9952 58.7212 23.5478 61.2758 22.1638C63.9262 20.728 66.3285 18.137 66.3285 14.0294H61.478C61.478 15.8731 60.528 17.0524 58.9653 17.899C57.3069 18.7974 55.1951 19.1446 53.7555 19.1446V23.9952ZM66.3285 14.0294C66.3285 10.3944 64.9833 7.65347 62.4541 5.95581C60.1112 4.38323 57.0951 3.94779 54.1859 3.94779V8.7983C56.7644 8.7983 58.607 9.21541 59.7508 9.9832C60.7084 10.6259 61.478 11.7131 61.478 14.0294H66.3285ZM54.1859 3.94779H46.9434V8.7983H54.1859V3.94779ZM44.5181 6.37305V6.81174H49.3686V6.37305H44.5181ZM46.9434 9.23699H51.9097V4.38648H46.9434V9.23699ZM51.9097 9.23699C53.4906 9.23699 54.5762 9.59141 55.2461 10.1701C55.8484 10.6904 56.5034 11.73 56.5034 14.0294H61.3539C61.3539 10.7666 60.3825 8.19738 58.4168 6.49941C56.5187 4.85977 54.0949 4.38648 51.9097 4.38648V9.23699ZM56.5034 14.0294C56.5034 16.0511 56.1749 17.3508 55.7115 18.0972C55.3521 18.6761 54.8249 19.0869 53.6688 19.148L53.9249 23.9918C56.5266 23.8542 58.5653 22.6965 59.8324 20.6557C60.9954 18.7824 61.3539 16.4112 61.3539 14.0294H56.5034Z" fill="#116A7B" mask="url(#path-10-inside-5_3026_402)"/>
<mask id="path-12-inside-6_3026_402" fill="white">
<path d="M40.3535 27.9949L53.4563 22.9624L60.4918 25.7931L60.4091 25.222C60.3793 25.0044 60.2924 24.7986 60.1572 24.6256C60.022 24.4525 59.8432 24.3185 59.6393 24.2371L53.4563 21.7539L41.3054 26.4471L40.3535 27.9949Z"/>
</mask>
<path d="M40.3535 27.9949L53.4563 22.9624L60.4918 25.7931L60.4091 25.222C60.3793 25.0044 60.2924 24.7986 60.1572 24.6256C60.022 24.4525 59.8432 24.3185 59.6393 24.2371L53.4563 21.7539L41.3054 26.4471L40.3535 27.9949Z" fill="url(#paint4_linear_3026_402)"/>
<path d="M40.3535 27.9949L38.2877 26.7244L34.5341 32.828L41.2231 30.2589L40.3535 27.9949ZM53.4563 22.9624L54.3615 20.7124L53.4769 20.3565L52.5867 20.6984L53.4563 22.9624ZM60.4918 25.7931L59.5866 28.0431L63.4965 29.6163L62.892 25.4453L60.4918 25.7931ZM60.4091 25.222L58.0061 25.5504L58.0075 25.5601L58.0089 25.5699L60.4091 25.222ZM59.6393 24.2371L58.7355 26.4876L58.74 26.4894L59.6393 24.2371ZM53.4563 21.7539L54.3601 19.5034L53.4736 19.1473L52.5824 19.4915L53.4563 21.7539ZM41.3054 26.4471L40.4316 24.1847L39.6682 24.4795L39.2395 25.1766L41.3054 26.4471ZM41.2231 30.2589L54.3258 25.2264L52.5867 20.6984L39.484 25.7309L41.2231 30.2589ZM52.551 25.2123L59.5866 28.0431L61.3971 23.5432L54.3615 20.7124L52.551 25.2123ZM62.892 25.4453L62.8092 24.8742L58.0089 25.5699L58.0917 26.141L62.892 25.4453ZM62.812 24.8937C62.7242 24.2511 62.4675 23.6433 62.0681 23.1322L58.2463 26.119C58.1173 25.954 58.0345 25.7577 58.0061 25.5504L62.812 24.8937ZM62.0681 23.1322C61.6687 22.6211 61.1409 22.2252 60.5386 21.9847L58.74 26.4894C58.5456 26.4118 58.3752 26.284 58.2463 26.119L62.0681 23.1322ZM60.5431 21.9865L54.3601 19.5034L52.5524 24.0045L58.7355 26.4876L60.5431 21.9865ZM52.5824 19.4915L40.4316 24.1847L42.1792 28.7094L54.3301 24.0163L52.5824 19.4915ZM39.2395 25.1766L38.2877 26.7244L42.4194 29.2653L43.3713 27.7175L39.2395 25.1766Z" fill="#116A7B" mask="url(#path-12-inside-6_3026_402)"/>
<path d="M63.8157 31.4358C63.8157 32.3821 63.6815 33.2456 63.4253 34.0206C63.6017 33.2719 63.6915 32.4768 63.6915 31.6427C63.6915 30.9626 63.6663 30.2596 63.5697 29.5619C63.7482 30.1551 63.8326 30.7766 63.8161 31.4039L63.8157 31.4198V31.4358Z" fill="url(#paint5_linear_3026_402)" stroke="#116A7B" stroke-width="2.42526"/>
<path d="M40.1365 38.6007V13.3068C40.1399 13.251 40.1399 13.1949 40.1365 13.1391V7.61107H43.1358C42.7724 8.51416 42.7354 9.59308 42.7354 10.5618V34.9463C42.7354 36.2728 42.8039 37.5762 43.2771 38.6007H40.1365Z" fill="#116A7B" stroke="#116A7B" stroke-width="2.42526"/>
<mask id="path-16-inside-7_3026_402" fill="white">
<path d="M12.0401 46.4766H13.0996V39.83H12.0401V46.4766Z"/>
</mask>
<path d="M12.0401 46.4766H13.0996V39.83H12.0401V46.4766Z" fill="url(#paint6_linear_3026_402)"/>
<path d="M13.0996 46.4766V48.9018H15.5249V46.4766H13.0996ZM12.0401 46.4766H9.61487V48.9018H12.0401V46.4766ZM12.0401 39.83L12.0401 37.4048H9.61487L9.61487 39.83H12.0401ZM13.0996 39.83H15.5249L15.5249 37.4048H13.0996L13.0996 39.83ZM13.0996 44.0513H12.0401V48.9018H13.0996V44.0513ZM14.4654 46.4766V39.83H9.61487V46.4766H14.4654ZM12.0401 42.2553H13.0996L13.0996 37.4048H12.0401L12.0401 42.2553ZM10.6744 39.83V46.4766H15.5249V39.83H10.6744Z" fill="#116A7B" mask="url(#path-16-inside-7_3026_402)"/>
<mask id="path-18-inside-8_3026_402" fill="white">
<path d="M14.4395 46.4669H15.5072L15.5155 39.4727L14.4395 39.6796V46.4669Z"/>
</mask>
<path d="M14.4395 46.4669H15.5072L15.5155 39.4727L14.4395 39.6796V46.4669Z" fill="url(#paint7_linear_3026_402)"/>
<path d="M14.4395 46.4669H12.0142V48.8921H14.4395V46.4669ZM15.5072 46.4669V48.8921H17.9296L17.9325 46.4697L15.5072 46.4669ZM15.5155 39.4727L17.9407 39.4755L17.9442 36.5359L15.0575 37.091L15.5155 39.4727ZM14.4395 39.6796L13.9815 37.298L12.0142 37.6763V39.6796H14.4395ZM14.4395 48.8921H15.5072V44.0416H14.4395V48.8921ZM17.9325 46.4697L17.9407 39.4755L13.0902 39.4698L13.0819 46.464L17.9325 46.4697ZM15.0575 37.091L13.9815 37.298L14.8975 42.0612L15.9735 41.8543L15.0575 37.091ZM12.0142 39.6796V46.4669H16.8647V39.6796H12.0142Z" fill="#116A7B" mask="url(#path-18-inside-8_3026_402)"/>
<mask id="path-20-inside-9_3026_402" fill="white">
<path d="M14.4464 6.72852H15.5059V0.131622H14.4464V6.72852Z"/>
</mask>
<path d="M14.4464 6.72852H15.5059V0.131622H14.4464V6.72852Z" fill="url(#paint8_linear_3026_402)"/>
<path d="M15.5059 6.72852V9.15377H17.9311V6.72852H15.5059ZM14.4464 6.72852H12.0211V9.15377H14.4464V6.72852ZM14.4464 0.131622L14.4464 -2.29363H12.0211V0.131622H14.4464ZM15.5059 0.131622H17.9311V-2.29363H15.5059L15.5059 0.131622ZM15.5059 4.30326H14.4464V9.15377H15.5059V4.30326ZM16.8716 6.72852V0.131622H12.0211V6.72852H16.8716ZM14.4464 2.55688H15.5059L15.5059 -2.29363H14.4464L14.4464 2.55688ZM13.0806 0.131622V6.72852H17.9311V0.131622H13.0806Z" fill="#116A7B" mask="url(#path-20-inside-9_3026_402)"/>
<mask id="path-22-inside-10_3026_402" fill="white">
<path d="M12.046 6.70508H13.1055V0.108185H12.046V6.70508Z"/>
</mask>
<path d="M12.046 6.70508H13.1055V0.108185H12.046V6.70508Z" fill="url(#paint9_linear_3026_402)"/>
<path d="M13.1055 6.70508V9.13033H15.5307V6.70508H13.1055ZM12.046 6.70508H9.62074V9.13033H12.046V6.70508ZM12.046 0.108185L12.046 -2.31707H9.62074V0.108185H12.046ZM13.1055 0.108185H15.5307V-2.31707H13.1055L13.1055 0.108185ZM13.1055 4.27982H12.046V9.13033H13.1055V4.27982ZM14.4712 6.70508V0.108185H9.62074V6.70508H14.4712ZM12.046 2.53344H13.1055L13.1055 -2.31707H12.046L12.046 2.53344ZM10.6802 0.108185V6.70508H15.5307V0.108185H10.6802Z" fill="#116A7B" mask="url(#path-22-inside-10_3026_402)"/>
<mask id="path-24-inside-11_3026_402" fill="white">
<path d="M12.263 21.6788C8.81973 21.6788 2.11523 20.0979 2.11523 14.1466C2.11523 8.07117 6.34486 6.49023 11.8326 6.49023H19.1082V6.92892H14.1419C10.3758 6.92892 7.12291 8.58435 7.12291 14.1549C7.12291 18.5583 8.49692 21.4884 12.2547 21.6871"/>
</mask>
<path d="M12.263 21.6788C8.81973 21.6788 2.11523 20.0979 2.11523 14.1466C2.11523 8.07117 6.34486 6.49023 11.8326 6.49023H19.1082V6.92892H14.1419C10.3758 6.92892 7.12291 8.58435 7.12291 14.1549C7.12291 18.5583 8.49692 21.4884 12.2547 21.6871" fill="#116A7B"/>
<path d="M19.1082 6.49023H21.5335V4.06498H19.1082V6.49023ZM19.1082 6.92892V9.35418H21.5335V6.92892H19.1082ZM12.263 19.2536C10.8217 19.2536 8.70966 18.9078 7.05152 18.0111C5.48967 17.1665 4.54049 15.9896 4.54049 14.1466H-0.310021C-0.310021 18.2549 2.09305 20.8441 4.74427 22.2777C7.29921 23.6594 10.2611 24.1041 12.263 24.1041V19.2536ZM4.54049 14.1466C4.54049 11.7521 5.32067 10.6811 6.25521 10.0621C7.3916 9.30947 9.22791 8.91549 11.8326 8.91549V4.06498C8.94956 4.06498 5.92718 4.46147 3.57682 6.01814C1.02461 7.70852 -0.310021 10.4656 -0.310021 14.1466H4.54049ZM11.8326 8.91549H19.1082V4.06498H11.8326V8.91549ZM16.683 6.49023V6.92892H21.5335V6.49023H16.683ZM19.1082 4.50367H14.1419V9.35418H19.1082V4.50367ZM14.1419 4.50367C11.9567 4.50367 9.53228 4.97697 7.6339 6.61836C5.66839 8.31779 4.69765 10.889 4.69765 14.1549H9.54816C9.54816 11.8502 10.2039 10.8085 10.8064 10.2875C11.476 9.70859 12.5611 9.35418 14.1419 9.35418V4.50367ZM4.69765 14.1549C4.69765 16.5365 5.0561 18.9066 6.22011 20.7785C7.48837 22.818 9.52758 23.9716 12.1267 24.109L12.3828 19.2652C11.2241 19.204 10.6974 18.7931 10.3392 18.2171C9.87672 17.4734 9.54816 16.1767 9.54816 14.1549H4.69765Z" fill="#116A7B" mask="url(#path-24-inside-11_3026_402)"/>
<mask id="path-26-inside-12_3026_402" fill="white">
<path d="M25.6614 28.1018L12.5586 23.0693L5.56445 25.9001L5.64722 25.3373C5.67613 25.1194 5.76273 24.9132 5.89807 24.74C6.03341 24.5668 6.21256 24.433 6.417 24.3523L12.6 21.8691L24.7509 26.5706L25.6614 28.1018Z"/>
</mask>
<path d="M25.6614 28.1018L12.5586 23.0693L5.56445 25.9001L5.64722 25.3373C5.67613 25.1194 5.76273 24.9132 5.89807 24.74C6.03341 24.5668 6.21256 24.433 6.417 24.3523L12.6 21.8691L24.7509 26.5706L25.6614 28.1018Z" fill="url(#paint10_linear_3026_402)"/>
<path d="M25.6614 28.1018L24.7918 30.3658L31.3199 32.8732L27.746 26.8624L25.6614 28.1018ZM12.5586 23.0693L13.4282 20.8053L12.5354 20.4624L11.6488 20.8212L12.5586 23.0693ZM5.56445 25.9001L3.165 25.5473L2.54888 29.737L6.47434 28.1482L5.56445 25.9001ZM5.64722 25.3373L8.04667 25.6901L8.04917 25.6732L8.05142 25.6562L5.64722 25.3373ZM6.417 24.3523L7.30744 26.6082L7.31415 26.6055L7.32083 26.6028L6.417 24.3523ZM12.6 21.8691L13.4752 19.6073L12.5835 19.2623L11.6962 19.6186L12.6 21.8691ZM24.7509 26.5706L26.8355 25.3311L26.4074 24.611L25.6261 24.3087L24.7509 26.5706ZM26.5309 25.8378L13.4282 20.8053L11.6891 25.3333L24.7918 30.3658L26.5309 25.8378ZM11.6488 20.8212L4.65457 23.652L6.47434 28.1482L13.4685 25.3174L11.6488 20.8212ZM7.9639 26.253L8.04667 25.6901L3.24777 24.9844L3.165 25.5473L7.9639 26.253ZM8.05142 25.6562C8.02348 25.8668 7.93977 26.0661 7.80898 26.2334L3.98715 23.2466C3.58568 23.7603 3.32877 24.372 3.24303 25.0183L8.05142 25.6562ZM7.80898 26.2334C7.67816 26.4008 7.50499 26.5302 7.30744 26.6082L5.52655 22.0964C4.92013 22.3358 4.38865 22.7329 3.98715 23.2466L7.80898 26.2334ZM7.32083 26.6028L13.5039 24.1197L11.6962 19.6186L5.51317 22.1017L7.32083 26.6028ZM11.7249 24.131L23.8757 28.8324L25.6261 24.3087L13.4752 19.6073L11.7249 24.131ZM22.6663 27.81L23.5768 29.3413L27.746 26.8624L26.8355 25.3311L22.6663 27.81Z" fill="#116A7B" mask="url(#path-26-inside-12_3026_402)"/>
<path d="M2.20108 31.512C2.18408 30.8813 2.26945 30.2565 2.45011 29.6605C2.35135 30.3643 2.32563 31.0737 2.32563 31.7599C2.32563 32.5742 2.40975 33.3503 2.5752 34.0817C2.32987 33.3195 2.20152 32.4721 2.20152 31.5447V31.5284L2.20108 31.512Z" fill="url(#paint11_linear_3026_402)" stroke="#116A7B" stroke-width="2.42526"/>
<path d="M25.833 13.1097C25.8285 13.1734 25.8285 13.2373 25.833 13.301V38.5914H22.6908C23.1656 37.5678 23.2341 36.2642 23.2341 34.937V10.5443C23.2341 9.57507 23.1972 8.49595 22.8323 7.59349H25.833V13.1097Z" fill="#116A7B" stroke="#116A7B" stroke-width="2.42526"/>
<defs>
<linearGradient id="paint0_linear_3026_402" x1="52.9277" y1="43.0403" x2="53.9872" y2="43.0403" gradientUnits="userSpaceOnUse">
<stop stop-color="#1D8896"/>
<stop offset="0.59" stop-color="#177383"/>
<stop offset="1" stop-color="#146A7B"/>
</linearGradient>
<linearGradient id="paint1_linear_3026_402" x1="50.502" y1="42.8582" x2="51.578" y2="42.8582" gradientUnits="userSpaceOnUse">
<stop stop-color="#1D8896"/>
<stop offset="0.59" stop-color="#177383"/>
<stop offset="1" stop-color="#146A7B"/>
</linearGradient>
<linearGradient id="paint2_linear_3026_402" x1="50.5117" y1="3.31821" x2="51.5712" y2="3.31821" gradientUnits="userSpaceOnUse">
<stop stop-color="#1D8896"/>
<stop offset="0.59" stop-color="#177383"/>
<stop offset="1" stop-color="#146A7B"/>
</linearGradient>
<linearGradient id="paint3_linear_3026_402" x1="52.9102" y1="3.30259" x2="53.9696" y2="3.30259" gradientUnits="userSpaceOnUse">
<stop stop-color="#1D8896"/>
<stop offset="0.59" stop-color="#177383"/>
<stop offset="1" stop-color="#146A7B"/>
</linearGradient>
<linearGradient id="paint4_linear_3026_402" x1="40.3535" y1="24.8661" x2="60.4505" y2="24.8661" gradientUnits="userSpaceOnUse">
<stop stop-color="#1D8896"/>
<stop offset="0.59" stop-color="#177383"/>
<stop offset="1" stop-color="#146A7B"/>
</linearGradient>
<linearGradient id="paint5_linear_3026_402" x1="48.7471" y1="32.2552" x2="65.0117" y2="32.2552" gradientUnits="userSpaceOnUse">
<stop stop-color="#1D8896"/>
<stop offset="0.59" stop-color="#177383"/>
<stop offset="1" stop-color="#146A7B"/>
</linearGradient>
<linearGradient id="paint6_linear_3026_402" x1="12.0319" y1="43.1574" x2="13.0913" y2="43.1574" gradientUnits="userSpaceOnUse">
<stop stop-color="#1D8896"/>
<stop offset="0.59" stop-color="#177383"/>
<stop offset="1" stop-color="#146A7B"/>
</linearGradient>
<linearGradient id="paint7_linear_3026_402" x1="14.4395" y1="42.9656" x2="15.5155" y2="42.9656" gradientUnits="userSpaceOnUse">
<stop stop-color="#1D8896"/>
<stop offset="0.59" stop-color="#177383"/>
<stop offset="1" stop-color="#146A7B"/>
</linearGradient>
<linearGradient id="paint8_linear_3026_402" x1="14.4464" y1="3.42593" x2="15.5059" y2="3.42593" gradientUnits="userSpaceOnUse">
<stop stop-color="#1D8896"/>
<stop offset="0.59" stop-color="#177383"/>
<stop offset="1" stop-color="#146A7B"/>
</linearGradient>
<linearGradient id="paint9_linear_3026_402" x1="12.046" y1="3.41077" x2="13.1055" y2="3.41077" gradientUnits="userSpaceOnUse">
<stop stop-color="#1D8896"/>
<stop offset="0.59" stop-color="#177383"/>
<stop offset="1" stop-color="#146A7B"/>
</linearGradient>
<linearGradient id="paint10_linear_3026_402" x1="5.56445" y1="24.9731" x2="25.6614" y2="24.9731" gradientUnits="userSpaceOnUse">
<stop stop-color="#1D8896"/>
<stop offset="0.59" stop-color="#177383"/>
<stop offset="1" stop-color="#146A7B"/>
</linearGradient>
<linearGradient id="paint11_linear_3026_402" x1="1.00544" y1="32.3641" x2="17.2701" y2="32.3641" gradientUnits="userSpaceOnUse">
<stop stop-color="#1D8896"/>
<stop offset="0.59" stop-color="#177383"/>
<stop offset="1" stop-color="#146A7B"/>
</linearGradient>
</defs>
</svg>
